# xmcd CD database file
#
# Track frame offsets:
#	150
#	19157
#	44437
#
# Disc length: 844 seconds
#
# Revision: 1
# Processed by: cddbd v1.5PL3 Copyright (c) Steve Scherf et al.
# Submitted via: CDex 1.51
#
DISCID=1e034a03
DTITLE=相川七瀬 - BREAK OUT!
DYEAR=1996
DGENRE=JPop
TTITLE0=BREAK OUT!
TTITLE1=今でも…。
TTITLE2=BREAK OUT!  ORIGINAL KARAOKE
EXTD=YEAR: 1996
EXTT0=
EXTT1=
EXTT2=
PLAYORDER=
